PathFileType	3	(X/Y/Z)	D:\minhoCalibration\240510\subject4_KPNP\preferred\preferred04.trc
DataRate	CameraRate	NumFrames	NumMarkers	Units	OrigDataRate	OrigDataStartFrame	OrigNumFrames
200.0	200.0	12	10	mm	200.0	166	92	
Frame#	Time	Left_Ankle_Outer1			Left_Ankle_Inner1			Left_Knee_Outer1			Left_Knee_Inner1			Left_Wrist1			Right_Wrist1			Right_Knee_Inner1			Right_Knee_Outer1			Right_Ankle_Inner1			Right_Ankle_Outer1			
		X1	Y1	Z1	X2	Y2	Z2	X3	Y3	Z3	X4	Y4	Z4	X5	Y5	Z5	X6	Y6	Z6	X7	Y7	Z7	X8	Y8	Z8	X9	Y9	Z9	X10	Y10	Z10	
166	0.82	-471.32086	363.02374	1693.9913	-428.59567	302.86737	1620.1382	-745.08246	551.77869	1311.5824	-665.06775	504.95212	1248.6516	-559.51166	980.80975	1340.089	-217.67857	887.13757	1362.2607	-358.7612	506.85013	1117.8916	-258.40811	504.04459	1168.7004	-476.36182	65.273392	1288.2393	-426.78397	74.617622	1313.7504
167	0.825	-473.58502	375.08621	1673.1031	-429.15842	315.61316	1599.077	-745.61414	561.30524	1288.3502	-663.72327	515.36823	1227.2168	-557.12531	987.99731	1330.8708	-216.20697	890.13519	1364.5282	-354.4151	507.92099	1119.5115	-256.30927	505.26041	1173.2097	-475.5842	66.163208	1288.2968	-426.23871	75.190765	1314.2509
168	0.83	-476.45935	387.23666	1652.4723	-430.39993	328.40314	1578.947	-745.20526	571.29248	1264.9615	-661.1441	526.02856	1205.8634	-554.03992	995.15118	1321.8828	-216.28825	892.69897	1367.53	-350.71277	509.20325	1121.5677	-254.16985	506.59454	1178.1611	-474.78403	67.161217	1288.3499	-425.18164	75.503395	1314.6943
169	0.835	-479.89883	399.36261	1632.1239	-431.90695	341.28067	1558.8763	-744.49426	581.81812	1241.3633	-658.17688	537.79089	1184.2977	-550.5274	1002.3724	1312.9805	-216.57918	895.41174	1370.8104	-346.29819	510.26071	1123.4762	-252.25407	508.02124	1183.2351	-474.64374	68.452469	1288.6058	-425.15359	76.657692	1315.2321
170	0.84	-483.44205	411.44427	1611.7638	-433.53979	354.36865	1539.5175	-742.9967	593.05139	1217.7545	-654.23022	550.21716	1162.5737	-547.22144	1010.0842	1303.9969	-216.77927	898.32288	1374.2944	-342.25125	511.47473	1125.9076	-250.48163	509.38565	1188.474	-473.98956	69.756256	1288.7396	-424.66296	77.547989	1315.7432
171	0.845	-487.4971	423.82233	1591.6017	-436.33768	367.52023	1520.0303	-740.79388	604.89337	1193.7606	-650.01569	563.15186	1140.9048	-543.64441	1017.9031	1295.2426	-217.64972	901.26062	1377.8052	-339.13718	512.72498	1128.9689	-248.39159	510.95193	1193.9535	-473.2236	71.204765	1288.8202	-423.89038	78.481606	1316.369
172	0.85	-492.10782	436.37057	1571.7611	-438.80411	380.48068	1500.7518	-737.67529	617.36566	1169.8888	-644.66217	576.50305	1119.2295	-539.97552	1026.067	1286.7552	-218.43512	904.41052	1381.6024	-335.21454	514.22137	1131.5745	-246.78391	512.6131	1199.5416	-472.42096	72.776894	1288.8665	-423.58011	79.733223	1316.818
173	0.855	-497.28781	449.09613	1552.1931	-442.25748	393.83044	1482.0339	-734.02374	630.53271	1145.6074	-638.51544	590.22467	1097.3719	-535.49695	1033.8524	1278.1799	-219.73358	907.12311	1385.3199	-331.89154	515.42682	1134.3384	-245.33517	514.23407	1204.9712	-471.69168	74.507362	1288.7987	-423.12466	81.122002	1317.3762
174	0.86	-503.25824	462.0304	1532.9069	-445.87775	407.17261	1463.9052	-729.13757	644.13538	1121.3958	-631.72437	604.51282	1075.842	-530.96356	1041.7123	1269.9677	-221.85291	910.2146	1389.1185	-328.61456	516.91272	1137.1025	-243.80467	516.09521	1210.304	-470.90775	76.347778	1288.6436	-422.31027	82.339096	1317.6869
175	0.865	-509.99451	475.20886	1513.812	-450.94641	420.8858	1446.4209	-723.69257	658.66528	1097.1199	-624.0191	619.11896	1054.5859	-525.93713	1049.4524	1262.0422	-223.21793	913.3786	1393.0856	-325.29227	518.4353	1139.7195	-242.4375	518.12872	1215.4073	-470.20337	78.301056	1288.334	-422.37616	84.414772	1318.1803
176	0.87	-517.67371	488.40915	1495.3129	-455.79404	435.06192	1429.3934	-716.95422	673.55505	1072.8977	-616.56769	634.10468	1034.2467	-520.74786	1057.2377	1254.4122	-225.37167	915.91663	1396.9066	-322.08698	520.17169	1141.8767	-241.0656	520.36926	1220.0975	-469.55167	80.331841	1287.684	-422.54709	86.317101	1318.4692
177	0.875	-526.18475	501.91135	1476.7488	-461.31445	449.5181	1413.6545	-708.85938	688.9455	1048.9071	-605.99811	649.66693	1013.0781	-515.37299	1064.9381	1247.1304	-227.30655	918.85858	1401.1377	-319.03247	521.87323	1144.9675	-239.14114	522.62244	1224.9489	-468.95496	82.527199	1286.8752	-422.12491	87.885002	1318.214
